<svg id="visual" viewBox="0 0 1920 1080" width="1920" height="1080" xmlns="http://www.w3.org/2000/svg" xmlns:xlink="http://www.w3.org/1999/xlink" version="1.1"><path d="M0 756L45.7 744.3C91.3 732.7 182.7 709.3 274.2 703.8C365.7 698.3 457.3 710.7 548.8 727C640.3 743.3 731.7 763.7 823 754.5C914.3 745.3 1005.7 706.7 1097 709.8C1188.3 713 1279.7 758 1371.2 756.5C1462.7 755 1554.3 707 1645.8 698.8C1737.3 690.7 1828.7 722.3 1874.3 738.2L1920 754L1920 1081L1874.3 1081C1828.7 1081 1737.3 1081 1645.8 1081C1554.3 1081 1462.7 1081 1371.2 1081C1279.7 1081 1188.3 1081 1097 1081C1005.7 1081 914.3 1081 823 1081C731.7 1081 640.3 1081 548.8 1081C457.3 1081 365.7 1081 274.2 1081C182.7 1081 91.3 1081 45.7 1081L0 1081Z" fill="#35bbdf"></path><path d="M0 716L45.7 729.8C91.3 743.7 182.7 771.3 274.2 770C365.7 768.7 457.3 738.3 548.8 739C640.3 739.7 731.7 771.3 823 795C914.3 818.7 1005.7 834.3 1097 822.5C1188.3 810.7 1279.7 771.3 1371.2 757C1462.7 742.7 1554.3 753.3 1645.8 750C1737.3 746.7 1828.7 729.3 1874.3 720.7L1920 712L1920 1081L1874.3 1081C1828.7 1081 1737.3 1081 1645.8 1081C1554.3 1081 1462.7 1081 1371.2 1081C1279.7 1081 1188.3 1081 1097 1081C1005.7 1081 914.3 1081 823 1081C731.7 1081 640.3 1081 548.8 1081C457.3 1081 365.7 1081 274.2 1081C182.7 1081 91.3 1081 45.7 1081L0 1081Z" fill="#25c3e0"></path><path d="M0 798L45.7 804C91.3 810 182.7 822 274.2 836.2C365.7 850.3 457.3 866.7 548.8 867C640.3 867.3 731.7 851.7 823 836.3C914.3 821 1005.7 806 1097 812.7C1188.3 819.3 1279.7 847.7 1371.2 857.2C1462.7 866.7 1554.3 857.3 1645.8 858.3C1737.3 859.3 1828.7 870.7 1874.3 876.3L1920 882L1920 1081L1874.3 1081C1828.7 1081 1737.3 1081 1645.8 1081C1554.3 1081 1462.7 1081 1371.2 1081C1279.7 1081 1188.3 1081 1097 1081C1005.7 1081 914.3 1081 823 1081C731.7 1081 640.3 1081 548.8 1081C457.3 1081 365.7 1081 274.2 1081C182.7 1081 91.3 1081 45.7 1081L0 1081Z" fill="#18cbe0"></path><path d="M0 937L45.7 927.3C91.3 917.7 182.7 898.3 274.2 894.8C365.7 891.3 457.3 903.7 548.8 908.7C640.3 913.7 731.7 911.3 823 904.2C914.3 897 1005.7 885 1097 891.3C1188.3 897.7 1279.7 922.3 1371.2 922.7C1462.7 923 1554.3 899 1645.8 900.2C1737.3 901.3 1828.7 927.7 1874.3 940.8L1920 954L1920 1081L1874.3 1081C1828.7 1081 1737.3 1081 1645.8 1081C1554.3 1081 1462.7 1081 1371.2 1081C1279.7 1081 1188.3 1081 1097 1081C1005.7 1081 914.3 1081 823 1081C731.7 1081 640.3 1081 548.8 1081C457.3 1081 365.7 1081 274.2 1081C182.7 1081 91.3 1081 45.7 1081L0 1081Z" fill="#15d3de"></path><path d="M0 950L45.7 952.3C91.3 954.7 182.7 959.3 274.2 958.7C365.7 958 457.3 952 548.8 959.3C640.3 966.7 731.7 987.3 823 989C914.3 990.7 1005.7 973.3 1097 971.8C1188.3 970.3 1279.7 984.7 1371.2 995.8C1462.7 1007 1554.3 1015 1645.8 1013.5C1737.3 1012 1828.7 1001 1874.3 995.5L1920 990L1920 1081L1874.3 1081C1828.7 1081 1737.3 1081 1645.8 1081C1554.3 1081 1462.7 1081 1371.2 1081C1279.7 1081 1188.3 1081 1097 1081C1005.7 1081 914.3 1081 823 1081C731.7 1081 640.3 1081 548.8 1081C457.3 1081 365.7 1081 274.2 1081C182.7 1081 91.3 1081 45.7 1081L0 1081Z" fill="#21dadb"></path></svg>