<svg id="visual" viewBox="0 0 1920 1080" width="1920" height="1080" xmlns="http://www.w3.org/2000/svg" xmlns:xlink="http://www.w3.org/1999/xlink" version="1.1"><rect x="0" y="0" width="1920" height="1080" fill="#FFFFFF"></rect><defs><linearGradient id="grad1_0" x1="43.8%" y1="0%" x2="100%" y2="100%"><stop offset="14.444444444444446%" stop-color="#35bbdf" stop-opacity="1"></stop><stop offset="85.55555555555554%" stop-color="#35bbdf" stop-opacity="1"></stop></linearGradient></defs><defs><linearGradient id="grad1_1" x1="43.8%" y1="0%" x2="100%" y2="100%"><stop offset="14.444444444444446%" stop-color="#35bbdf" stop-opacity="1"></stop><stop offset="85.55555555555554%" stop-color="#7bcce7" stop-opacity="1"></stop></linearGradient></defs><defs><linearGradient id="grad1_2" x1="43.8%" y1="0%" x2="100%" y2="100%"><stop offset="14.444444444444446%" stop-color="#acddef" stop-opacity="1"></stop><stop offset="85.55555555555554%" stop-color="#7bcce7" stop-opacity="1"></stop></linearGradient></defs><defs><linearGradient id="grad1_3" x1="43.8%" y1="0%" x2="100%" y2="100%"><stop offset="14.444444444444446%" stop-color="#acddef" stop-opacity="1"></stop><stop offset="85.55555555555554%" stop-color="#d6eef7" stop-opacity="1"></stop></linearGradient></defs><defs><linearGradient id="grad1_4" x1="43.8%" y1="0%" x2="100%" y2="100%"><stop offset="14.444444444444446%" stop-color="#ffffff" stop-opacity="1"></stop><stop offset="85.55555555555554%" stop-color="#d6eef7" stop-opacity="1"></stop></linearGradient></defs><defs><linearGradient id="grad2_0" x1="0%" y1="0%" x2="56.3%" y2="100%"><stop offset="14.444444444444446%" stop-color="#35bbdf" stop-opacity="1"></stop><stop offset="85.55555555555554%" stop-color="#35bbdf" stop-opacity="1"></stop></linearGradient></defs><defs><linearGradient id="grad2_1" x1="0%" y1="0%" x2="56.3%" y2="100%"><stop offset="14.444444444444446%" stop-color="#7bcce7" stop-opacity="1"></stop><stop offset="85.55555555555554%" stop-color="#35bbdf" stop-opacity="1"></stop></linearGradient></defs><defs><linearGradient id="grad2_2" x1="0%" y1="0%" x2="56.3%" y2="100%"><stop offset="14.444444444444446%" stop-color="#7bcce7" stop-opacity="1"></stop><stop offset="85.55555555555554%" stop-color="#acddef" stop-opacity="1"></stop></linearGradient></defs><defs><linearGradient id="grad2_3" x1="0%" y1="0%" x2="56.3%" y2="100%"><stop offset="14.444444444444446%" stop-color="#d6eef7" stop-opacity="1"></stop><stop offset="85.55555555555554%" stop-color="#acddef" stop-opacity="1"></stop></linearGradient></defs><defs><linearGradient id="grad2_4" x1="0%" y1="0%" x2="56.3%" y2="100%"><stop offset="14.444444444444446%" stop-color="#d6eef7" stop-opacity="1"></stop><stop offset="85.55555555555554%" stop-color="#ffffff" stop-opacity="1"></stop></linearGradient></defs><g transform="translate(1920, 0)"><path d="M0 1080C-233 1077.2 -466 1074.5 -540 935.3C-614 796.2 -528.9 520.6 -592.4 342C-655.9 163.4 -867.9 81.7 -1080 0L0 0Z" fill="#ebf6fb"></path><path d="M0 864C-186.4 861.8 -372.8 859.6 -432 748.2C-491.2 636.9 -423.1 416.5 -473.9 273.6C-524.7 130.7 -694.3 65.4 -864 0L0 0Z" fill="#c1e5f3"></path><path d="M0 648C-139.8 646.3 -279.6 644.7 -324 561.2C-368.4 477.7 -317.3 312.4 -355.4 205.2C-393.5 98 -520.8 49 -648 0L0 0Z" fill="#94d4eb"></path><path d="M0 432C-93.2 430.9 -186.4 429.8 -216 374.1C-245.6 318.5 -211.5 208.2 -236.9 136.8C-262.3 65.4 -347.2 32.7 -432 0L0 0Z" fill="#5ec3e3"></path><path d="M0 216C-46.6 215.4 -93.2 214.9 -108 187.1C-122.8 159.2 -105.8 104.1 -118.5 68.4C-131.2 32.7 -173.6 16.3 -216 0L0 0Z" fill="#35bbdf"></path></g><g transform="translate(0, 1080)"><path d="M0 -1080C120.9 -935.8 241.8 -791.6 415.5 -719.7C589.2 -647.7 815.8 -647.9 935.3 -540C1054.9 -432.1 1067.4 -216 1080 0L0 0Z" fill="#ebf6fb"></path><path d="M0 -864C96.7 -748.7 193.4 -633.3 332.4 -575.7C471.4 -518.2 652.6 -518.3 748.2 -432C843.9 -345.7 853.9 -172.8 864 0L0 0Z" fill="#c1e5f3"></path><path d="M0 -648C72.5 -561.5 145.1 -475 249.3 -431.8C353.5 -388.6 489.5 -388.7 561.2 -324C632.9 -259.3 640.5 -129.6 648 0L0 0Z" fill="#94d4eb"></path><path d="M0 -432C48.4 -374.3 96.7 -316.7 166.2 -287.9C235.7 -259.1 326.3 -259.2 374.1 -216C421.9 -172.8 427 -86.4 432 0L0 0Z" fill="#5ec3e3"></path><path d="M0 -216C24.2 -187.2 48.4 -158.3 83.1 -143.9C117.8 -129.5 163.2 -129.6 187.1 -108C211 -86.4 213.5 -43.2 216 0L0 0Z" fill="#35bbdf"></path></g></svg>