<svg id="visual" viewBox="0 0 1920 1080" width="1920" height="1080" xmlns="http://www.w3.org/2000/svg" xmlns:xlink="http://www.w3.org/1999/xlink" version="1.1"><rect x="0" y="0" width="1920" height="1080" fill="#FFFFFF"></rect><defs><linearGradient id="grad1_0" x1="43.8%" y1="0%" x2="100%" y2="100%"><stop offset="14.444444444444446%" stop-color="#4d94e6" stop-opacity="1"></stop><stop offset="85.55555555555554%" stop-color="#4d94e6" stop-opacity="1"></stop></linearGradient></defs><defs><linearGradient id="grad1_1" x1="43.8%" y1="0%" x2="100%" y2="100%"><stop offset="14.444444444444446%" stop-color="#4d94e6" stop-opacity="1"></stop><stop offset="85.55555555555554%" stop-color="#b1c8f3" stop-opacity="1"></stop></linearGradient></defs><defs><linearGradient id="grad1_2" x1="43.8%" y1="0%" x2="100%" y2="100%"><stop offset="14.444444444444446%" stop-color="#ffffff" stop-opacity="1"></stop><stop offset="85.55555555555554%" stop-color="#b1c8f3" stop-opacity="1"></stop></linearGradient></defs><defs><linearGradient id="grad2_0" x1="0%" y1="0%" x2="56.3%" y2="100%"><stop offset="14.444444444444446%" stop-color="#4d94e6" stop-opacity="1"></stop><stop offset="85.55555555555554%" stop-color="#4d94e6" stop-opacity="1"></stop></linearGradient></defs><defs><linearGradient id="grad2_1" x1="0%" y1="0%" x2="56.3%" y2="100%"><stop offset="14.444444444444446%" stop-color="#b1c8f3" stop-opacity="1"></stop><stop offset="85.55555555555554%" stop-color="#4d94e6" stop-opacity="1"></stop></linearGradient></defs><defs><linearGradient id="grad2_2" x1="0%" y1="0%" x2="56.3%" y2="100%"><stop offset="14.444444444444446%" stop-color="#b1c8f3" stop-opacity="1"></stop><stop offset="85.55555555555554%" stop-color="#ffffff" stop-opacity="1"></stop></linearGradient></defs><g transform="translate(1920, 0)"><path d="M0 702C-67.6 589.3 -135.2 476.6 -249.5 432.1C-363.8 387.7 -524.8 411.6 -607.9 351C-691.1 290.4 -696.6 145.2 -702 0L0 0Z" fill="#d9e3f9"></path><path d="M0 468C-45.1 392.9 -90.1 317.7 -166.3 288.1C-242.5 258.5 -349.8 274.4 -405.3 234C-460.8 193.6 -464.4 96.8 -468 0L0 0Z" fill="#85aded"></path><path d="M0 234C-22.5 196.4 -45.1 158.9 -83.2 144C-121.3 129.2 -174.9 137.2 -202.6 117C-230.4 96.8 -232.2 48.4 -234 0L0 0Z" fill="#4d94e6"></path></g><g transform="translate(0, 1080)"><path d="M0 -702C125.2 -685 250.4 -668.1 351 -607.9C451.6 -547.8 527.6 -444.5 582 -336C636.4 -227.5 669.2 -113.7 702 0L0 0Z" fill="#d9e3f9"></path><path d="M0 -468C83.5 -456.7 166.9 -445.4 234 -405.3C301.1 -365.2 351.7 -296.3 388 -224C424.2 -151.7 446.1 -75.8 468 0L0 0Z" fill="#85aded"></path><path d="M0 -234C41.7 -228.3 83.5 -222.7 117 -202.6C150.5 -182.6 175.9 -148.2 194 -112C212.1 -75.8 223.1 -37.9 234 0L0 0Z" fill="#4d94e6"></path></g></svg>